<?xml version="1.0" encoding="utf-8"?>
<!-- Generator: Adobe Illustrator 21.0.0, SVG Export Plug-In . SVG Version: 6.00 Build 0)  -->
<svg version="1.1" id="Calque_1" xmlns="http://www.w3.org/2000/svg" xmlns:xlink="http://www.w3.org/1999/xlink" x="0px" y="0px"
	 viewBox="0 0 103.6 153.1" style="enable-background:new 0 0 103.6 153.1;" xml:space="preserve">
<g>
	<path d="M25.5,0.3c3.4,0,6.5,0,9.6,0c0.3,3.4,0.5,6.8,0.9,10.1c0.2,1.3,0.5,2.9,1.3,3.9c0.6,0.7,2.4,1.2,3.3,0.8
		c0.9-0.4,1.8-1.8,1.9-2.9c0.5-3.9,0.7-7.9,1-11.9c3.3,0,5.9,0,9.1,0c0.4,4.1,0.8,8.2,1.2,12.3c0.7,8.8,1.3,17.7,1.9,26.5
		c0.1,1.9,0,3.8,0,5.6c0.1,3,1.7,4.9,4.1,4.6c2.8-0.3,3.1-2.4,3.1-4.8c-0.1-5.4-0.1-10.7,0-16.1c0.2-8.4,0.4-16.8,0.6-25.2
		c0-2.2,0.8-3.5,3.3-3.2c1.4,0.2,2.8,0,4.5,0c0.3,3.4,0.6,6.6,0.8,9.8c0.7,14.1,1.3,28.3,2,42.4c0.2,3.7,0.9,7.5,1.2,11.2
		c0.2,2.8,2.6,3.3,4.3,3.2c1.8-0.1,3-1.6,3-4c-0.1-19.6,0-39.2,0-58.8c0-1.2,0-2.4,0-3.7c7,0,13.7,0,20.7,0c0,35,0,70,0,105.7
		c-2.1-0.3-4.1-0.4-6.2-0.8c-5.6-0.9-19.9-0.2-27.1,2.3c-5.5,1.5-10.9,3.4-16.4,4.9c-9.5,2.5-18.9,1.7-28-1.6
		c-8-2.8-16.2-4.5-24.6-5c-0.3,0-0.6-0.1-1-0.3c0-35,0-70,0-105.2c6,0,11.9,0,18.3,0c0.8,11.4,0.6,31.9,2.3,34.1s4.9,0.5,4.9-3.4
		C25.5,21,25.5,10.8,25.5,0.3z M41.1,100.7c9.2-0.1,14.3-8.1,11.1-14.4c-2.8-5.6-6.4-10.9-9.8-16.3c-0.2-0.2-0.9-1.8-2.1,0.4
		c-2.7,4.9-5.8,9.7-8.7,14.5C27,92.5,32.9,100.7,41.1,100.7z"/>
	<path d="M103.5,153.1c-34.6,0-68.9,0-103.4,0c0-3.9,0-7.6,0-11.6c8.6-0.5,16.7,1.5,24.7,4.1c6.3,2.1,12.8,4.2,19.5,3.5
		c5.7-0.6,11.4-1.9,16.9-3.7c9.2-2.9,18.4-5.6,28-5.9c4.8-0.1,9.6,1,14.4,1.6C103.5,145.4,103.5,149.1,103.5,153.1z"/>
	<path d="M103.5,114.7c0,2.1,0,3.8,0,4.9c-7.1-0.7-12.9-0.7-19.8,0c-9.9,0.4-18.9,4.4-28.3,6.7c-8.6,2.1-17,1.9-25.5-0.7
		c-11.8-4-23.8-6.4-29.4-5.7c-0.3-3.4-0.1-6.3-0.1-6.3s2.4-0.1,5.2,0.2c9.2,0.8,17.9,4,26.7,6.4c8,2.1,15.9,2.4,23.9-0.3
		c8-2.7,16.2-5.2,24.4-6.4C88.1,112.3,95.9,112.1,103.5,114.7z"/>
	<path d="M0,133.7c0-2.3,0-4,0-6.7c4.8,0.8,9.2,1.5,13.7,2.3c3.1,0.6,6.2,1.3,9.4,2c6.5,1.4,13,3.5,19.6,4c5.3,0.4,10.8-0.7,16-2.1
		c10.2-2.9,20.3-6.2,31-6.7c6.2-0.4,10.5,0,13.7,1.4c0,1.6,0,3.4,0,4.8c-9.4-1.4-19.9-0.1-25.4,1.3c-5.8,1.2-11.6,2.7-17.3,4.3
		c-6.1,1.8-12.2,3.7-18.6,3c-5.5-0.6-10.9-1.8-16.2-3.4C17.5,135.5,9.6,133.9,0,133.7z"/>
</g>
</svg>
